<mxfile host="Electron" agent="Mozilla/5.0 (X11; Linux x86_64) AppleWebKit/537.36 (KHTML, like Gecko) draw.io/26.0.16 Chrome/132.0.6834.196 Electron/34.2.0 Safari/537.36" version="26.0.16" pages="2">
  <diagram name="Page-1" id="rn93lA2c4rw7Md8Qvrz3">
    <mxGraphModel dx="913" dy="538" grid="1" gridSize="10" guides="1" tooltips="1" connect="1" arrows="1" fold="1" page="1" pageScale="1" pageWidth="850" pageHeight="1100" math="0" shadow="0">
      <root>
        <mxCell id="0" />
        <mxCell id="1" parent="0" />
        <mxCell id="9wyJgUJEe0iQPoMxIcHO-4" value="Solicitante" style="shape=umlActor;verticalLabelPosition=bottom;verticalAlign=top;html=1;outlineConnect=0;" parent="1" vertex="1">
          <mxGeometry x="90" y="90" width="30" height="60" as="geometry" />
        </mxCell>
        <mxCell id="9wyJgUJEe0iQPoMxIcHO-8" value="" style="edgeStyle=orthogonalEdgeStyle;rounded=0;orthogonalLoop=1;jettySize=auto;html=1;" parent="1" target="9wyJgUJEe0iQPoMxIcHO-7" edge="1">
          <mxGeometry relative="1" as="geometry">
            <mxPoint x="270" y="130" as="sourcePoint" />
          </mxGeometry>
        </mxCell>
        <mxCell id="YxXzDJTC_oEOZa_-JDKm-8" value="" style="edgeStyle=orthogonalEdgeStyle;rounded=0;orthogonalLoop=1;jettySize=auto;html=1;" edge="1" parent="1" source="9wyJgUJEe0iQPoMxIcHO-7" target="YxXzDJTC_oEOZa_-JDKm-7">
          <mxGeometry relative="1" as="geometry" />
        </mxCell>
        <mxCell id="9wyJgUJEe0iQPoMxIcHO-7" value="ARP" style="rhombus;whiteSpace=wrap;html=1;rounded=0;" parent="1" vertex="1">
          <mxGeometry x="370" y="90" width="80" height="80" as="geometry" />
        </mxCell>
        <mxCell id="YxXzDJTC_oEOZa_-JDKm-4" value="" style="edgeStyle=orthogonalEdgeStyle;rounded=0;orthogonalLoop=1;jettySize=auto;html=1;" edge="1" parent="1" source="YxXzDJTC_oEOZa_-JDKm-1" target="YxXzDJTC_oEOZa_-JDKm-3">
          <mxGeometry relative="1" as="geometry" />
        </mxCell>
        <mxCell id="YxXzDJTC_oEOZa_-JDKm-1" value="Cadastrar Demanda" style="rounded=1;whiteSpace=wrap;html=1;" vertex="1" parent="1">
          <mxGeometry x="150" y="100" width="120" height="60" as="geometry" />
        </mxCell>
        <mxCell id="YxXzDJTC_oEOZa_-JDKm-3" value="Gerar Ofício Demanda" style="whiteSpace=wrap;html=1;rounded=1;" vertex="1" parent="1">
          <mxGeometry x="150" y="380" width="120" height="60" as="geometry" />
        </mxCell>
        <mxCell id="YxXzDJTC_oEOZa_-JDKm-10" value="" style="edgeStyle=orthogonalEdgeStyle;rounded=0;orthogonalLoop=1;jettySize=auto;html=1;" edge="1" parent="1" source="YxXzDJTC_oEOZa_-JDKm-7" target="YxXzDJTC_oEOZa_-JDKm-9">
          <mxGeometry relative="1" as="geometry" />
        </mxCell>
        <mxCell id="YxXzDJTC_oEOZa_-JDKm-7" value="Cadastrar Solicitação" style="rounded=1;whiteSpace=wrap;html=1;" vertex="1" parent="1">
          <mxGeometry x="350" y="240" width="120" height="60" as="geometry" />
        </mxCell>
        <mxCell id="YxXzDJTC_oEOZa_-JDKm-9" value="Gerar Ofício Solicitação" style="whiteSpace=wrap;html=1;rounded=1;" vertex="1" parent="1">
          <mxGeometry x="350" y="380" width="120" height="60" as="geometry" />
        </mxCell>
        <mxCell id="YxXzDJTC_oEOZa_-JDKm-11" value="Consultar Licitações" style="rounded=1;whiteSpace=wrap;html=1;" vertex="1" parent="1">
          <mxGeometry x="45" y="210" width="120" height="60" as="geometry" />
        </mxCell>
      </root>
    </mxGraphModel>
  </diagram>
  <diagram id="h0hchA8j-sV6yMMfJoAd" name="Page-2">
    <mxGraphModel dx="583" dy="344" grid="1" gridSize="10" guides="1" tooltips="1" connect="1" arrows="1" fold="1" page="1" pageScale="1" pageWidth="850" pageHeight="1100" math="0" shadow="0">
      <root>
        <mxCell id="0" />
        <mxCell id="1" parent="0" />
        <mxCell id="6P8XttJM7RmY95UduTf7-1" value="Licitação" style="shape=umlActor;verticalLabelPosition=bottom;verticalAlign=top;html=1;outlineConnect=0;" vertex="1" parent="1">
          <mxGeometry x="110" y="130" width="30" height="60" as="geometry" />
        </mxCell>
        <mxCell id="6P8XttJM7RmY95UduTf7-7" value="" style="edgeStyle=orthogonalEdgeStyle;rounded=0;orthogonalLoop=1;jettySize=auto;html=1;" edge="1" parent="1" source="6P8XttJM7RmY95UduTf7-4" target="6P8XttJM7RmY95UduTf7-6">
          <mxGeometry relative="1" as="geometry" />
        </mxCell>
        <mxCell id="6P8XttJM7RmY95UduTf7-4" value="Cadastrar Item" style="rounded=1;whiteSpace=wrap;html=1;" vertex="1" parent="1">
          <mxGeometry x="160" y="130" width="120" height="60" as="geometry" />
        </mxCell>
        <mxCell id="6P8XttJM7RmY95UduTf7-5" value="Cadastrar Fornecedor" style="rounded=1;whiteSpace=wrap;html=1;" vertex="1" parent="1">
          <mxGeometry x="160" y="230" width="120" height="60" as="geometry" />
        </mxCell>
        <mxCell id="6P8XttJM7RmY95UduTf7-9" value="" style="edgeStyle=orthogonalEdgeStyle;rounded=0;orthogonalLoop=1;jettySize=auto;html=1;" edge="1" parent="1" source="6P8XttJM7RmY95UduTf7-6" target="6P8XttJM7RmY95UduTf7-8">
          <mxGeometry relative="1" as="geometry" />
        </mxCell>
        <mxCell id="6P8XttJM7RmY95UduTf7-6" value="Cadastrar Licitação" style="whiteSpace=wrap;html=1;rounded=1;" vertex="1" parent="1">
          <mxGeometry x="360" y="130" width="120" height="60" as="geometry" />
        </mxCell>
        <mxCell id="LgaNCdJw9iHinjdVMSjC-2" value="" style="edgeStyle=orthogonalEdgeStyle;rounded=0;orthogonalLoop=1;jettySize=auto;html=1;" edge="1" parent="1" source="6P8XttJM7RmY95UduTf7-8" target="LgaNCdJw9iHinjdVMSjC-1">
          <mxGeometry relative="1" as="geometry" />
        </mxCell>
        <mxCell id="LgaNCdJw9iHinjdVMSjC-4" value="" style="edgeStyle=orthogonalEdgeStyle;rounded=0;orthogonalLoop=1;jettySize=auto;html=1;" edge="1" parent="1" source="6P8XttJM7RmY95UduTf7-8" target="LgaNCdJw9iHinjdVMSjC-3">
          <mxGeometry relative="1" as="geometry" />
        </mxCell>
        <mxCell id="6P8XttJM7RmY95UduTf7-8" value="Cadastrar Lances" style="whiteSpace=wrap;html=1;rounded=1;" vertex="1" parent="1">
          <mxGeometry x="360" y="270" width="120" height="60" as="geometry" />
        </mxCell>
        <mxCell id="6P8XttJM7RmY95UduTf7-10" value="" style="endArrow=classic;html=1;rounded=0;exitX=1;exitY=0.5;exitDx=0;exitDy=0;entryX=0;entryY=0.5;entryDx=0;entryDy=0;" edge="1" parent="1" source="6P8XttJM7RmY95UduTf7-5" target="6P8XttJM7RmY95UduTf7-8">
          <mxGeometry width="50" height="50" relative="1" as="geometry">
            <mxPoint x="310" y="370" as="sourcePoint" />
            <mxPoint x="360" y="320" as="targetPoint" />
            <Array as="points">
              <mxPoint x="340" y="260" />
              <mxPoint x="340" y="300" />
            </Array>
          </mxGeometry>
        </mxCell>
        <mxCell id="gqXm92TuT5m0OLrqTALt-2" value="" style="edgeStyle=orthogonalEdgeStyle;rounded=0;orthogonalLoop=1;jettySize=auto;html=1;" edge="1" parent="1" source="LgaNCdJw9iHinjdVMSjC-1" target="gqXm92TuT5m0OLrqTALt-1">
          <mxGeometry relative="1" as="geometry" />
        </mxCell>
        <mxCell id="LgaNCdJw9iHinjdVMSjC-1" value="Cadastrar Pedidos" style="whiteSpace=wrap;html=1;rounded=1;" vertex="1" parent="1">
          <mxGeometry x="360" y="410" width="120" height="60" as="geometry" />
        </mxCell>
        <mxCell id="LgaNCdJw9iHinjdVMSjC-3" value="Exportar ARP" style="whiteSpace=wrap;html=1;rounded=1;" vertex="1" parent="1">
          <mxGeometry x="560" y="270" width="120" height="60" as="geometry" />
        </mxCell>
        <mxCell id="LgaNCdJw9iHinjdVMSjC-5" value="Consultar Licitações" style="rounded=1;whiteSpace=wrap;html=1;" vertex="1" parent="1">
          <mxGeometry x="160" y="330" width="120" height="60" as="geometry" />
        </mxCell>
        <mxCell id="gqXm92TuT5m0OLrqTALt-1" value="Gerar Ofício Pedido" style="whiteSpace=wrap;html=1;rounded=1;" vertex="1" parent="1">
          <mxGeometry x="560" y="410" width="120" height="60" as="geometry" />
        </mxCell>
      </root>
    </mxGraphModel>
  </diagram>
</mxfile>
